<svg width="252" height="208" viewBox="0 0 252 208" fill="none" xmlns="http://www.w3.org/2000/svg">
    <g clip-path="url(#clip0_109_2347)">
    <path d="M0 195.4C0 202.04 5.43 207.47 12.07 207.47H239.2C245.84 207.47 251.27 202.04 251.27 195.4V0H0V195.4Z" fill="#3C3C3C"/>
    <path d="M76.6094 77.26V61.58H88.3094V64.45H80.0794V67.78H87.7894V70.55H80.0794V74.42H88.3094V77.26H76.6094Z" fill="white"/>
    <path d="M103.43 77.66C99.2302 77.66 95.7402 76.03 95.7402 69.38V69.48C95.7402 62.46 99.7002 61.22 103.5 61.22C106.2 61.22 108.84 61.67 109.41 61.84V64.49C108.22 64.39 105.35 64.24 104.09 64.24C101.1 64.24 99.1702 64.91 99.1702 69.48V69.38C99.1702 73.58 100.7 74.65 103.67 74.65C104.58 74.65 105.5 74.63 106.14 74.58V69.34H109.43V77.1C108.43 77.31 106.08 77.66 103.43 77.66Z" fill="white"/>
    <path d="M125.1 77.66C120.9 77.66 117.41 76.03 117.41 69.38V69.48C117.41 62.46 121.37 61.22 125.17 61.22C127.87 61.22 130.51 61.67 131.08 61.84V64.49C129.89 64.39 127.02 64.24 125.76 64.24C122.77 64.24 120.84 64.91 120.84 69.48V69.38C120.84 73.58 122.37 74.65 125.34 74.65C126.25 74.65 127.17 74.63 127.81 74.58V69.34H131.1V77.1C130.09 77.31 127.74 77.66 125.1 77.66Z" fill="white"/>
    <path d="M139.73 77.26V61.58H151.43V64.45H143.2V67.78H150.91V70.55H143.2V74.42H151.43V77.26H139.73Z" fill="white"/>
    <path d="M170.519 77.26L166.459 72.14C165.969 72.16 165.419 72.16 164.849 72.16H163.139V77.26H159.779V61.58C161.409 61.51 163.069 61.46 164.919 61.46C169.349 61.46 173.009 61.84 173.009 66.69V66.86C173.009 69.65 171.799 70.61 169.849 71.45L174.179 77.26H170.519ZM169.629 66.74C169.629 63.9 167.649 64.38 163.149 64.38V69.4C163.789 69.42 164.409 69.42 165.049 69.42C168.209 69.42 169.619 69.26 169.619 66.89V66.74H169.629Z" fill="white"/>
    <path d="M216.49 87.47H33.0996V88.28H216.49V87.47Z" fill="white"/>
    <path d="M49.4904 128.25H44.6104L41.7504 144.32H33.6504L41.5104 99.76C45.4404 99.52 49.1304 99.46 53.1804 99.46C63.4204 99.46 71.2904 101.44 71.2904 111.27C71.2904 125.01 61.4004 128.25 49.4904 128.25ZM50.6204 106.48H48.4804L45.8004 121.23H47.4104C55.6904 121.23 63.0104 121.17 63.0104 111.64C63.0104 106.54 58.6604 106.48 50.6204 106.48Z" fill="white"/>
    <path d="M100.111 126.21L99.3407 130.41C97.3707 141.02 91.5407 145.22 82.0707 145.22C73.3207 145.22 68.9707 141.02 68.9707 133.47C68.9707 131.79 69.1507 130.11 69.3907 128.61L70.1007 124.41C71.9507 113.74 78.0807 109.72 87.3707 109.72C95.8907 109.72 100.591 113.44 100.591 121.47C100.591 123.03 100.231 125.13 100.111 126.21ZM86.6507 116.43C81.1707 116.43 78.9707 118.89 77.7807 125.37L77.0107 129.57C76.7707 130.95 76.6507 132.15 76.6507 133.47C76.6507 137.01 78.3207 138.51 82.6707 138.51C88.3907 138.51 90.4107 136.05 91.6007 129.57L92.3707 125.37C92.6707 123.69 92.7307 122.67 92.7307 121.59C92.7307 118.29 91.4207 116.43 86.6507 116.43Z" fill="white"/>
    <path d="M186.24 144.32H178.32L184.16 110.62H192.02L186.24 144.32ZM193.15 105.34H185.05L186.36 97.72H194.46L193.15 105.34Z" fill="white"/>
    <path d="M216.009 116.91C211.959 116.91 207.309 117.81 204.579 118.95L200.049 144.32H192.189L198.089 110.62H205.479L205.059 113.38C208.749 110.5 212.979 109.72 217.149 109.72L216.009 116.91Z" fill="white"/>
    <path d="M153.001 131.62L152.881 131.87L152.921 131.79L153.001 131.62Z" fill="white"/>
    <path d="M138.36 110.56L130.08 127.26C128.73 129.98 127.79 132.59 126.67 135.25H126.38C126.5 132.94 126.62 130.22 126.62 127.2V113.86V110.56H122.79H119.08L119.31 117.58L114.51 127.26C113.16 129.98 112.22 132.59 111.1 135.25H110.81C110.93 132.94 111.05 130.22 111.05 127.2V110.56H103.51L104.63 144.32H114.75L119.86 134.07L120.2 144.32H130.32L137.5 129.93C138.62 127.62 144.43 115.23 146.01 111.43L146.35 110.56H138.36Z" fill="white"/>
    <path d="M170.981 99.76H158.531L137.391 144.32H146.031L149.381 137.54C151.401 133.82 158.161 129.96 166.251 129.96L166.271 129.86L166.441 131.56L166.461 131.78L166.481 131.97L168.011 144.32H176.591L170.981 99.76ZM155.201 125.13L160.791 112.66C161.861 110.38 162.761 108.04 163.651 105.58H164.191C164.131 108.04 164.191 110.38 164.491 112.66L165.541 122.91C162.121 123.12 158.551 123.91 155.201 125.13Z" fill="white"/>
    <path d="M42.7591 158.58L42.8291 158.59V160.85L42.7391 160.84C41.1391 160.73 39.8291 160.67 38.8491 160.67C36.3191 160.67 34.8591 161.33 34.8591 164.68V166.56C34.8591 169.93 36.3191 170.59 38.8491 170.59C39.8391 170.59 41.1491 170.53 42.7391 170.42L42.8291 170.41V172.69L42.7591 172.7C42.0191 172.85 40.0891 173.06 38.6491 173.06C33.7891 173.06 31.6191 171.05 31.6191 166.55V164.67C31.6191 160.12 33.7191 158.18 38.6491 158.18C40.0391 158.2 41.9791 158.42 42.7591 158.58ZM59.5591 158.48H56.3291V172.77H66.4591V170.37H59.5591V158.48ZM79.8591 172.77H90.3791V170.42H83.0891V166.57H89.9191V164.28H83.0891V160.85H90.3791V158.48H79.8591V172.77ZM112.759 158.48L117.739 172.77H114.349L112.949 168.82H107.829L106.379 172.77H103.069L108.049 158.48H112.759ZM110.979 162.68C110.729 161.94 110.549 161.14 110.419 160.51H110.359L110.279 160.85C110.139 161.46 109.999 162.09 109.799 162.68L108.459 166.47H112.299L110.979 162.68ZM140.989 166.24C140.989 166.88 140.999 167.79 141.059 168.63C140.749 168.05 140.349 167.4 140.019 166.86L134.749 158.52L134.729 158.48H131.049V172.77H134.019V164.72C134.019 163.96 133.979 163.17 133.949 162.46C134.289 163.08 134.679 163.73 135.049 164.34L140.259 172.72L140.279 172.76H143.979V158.47H140.989V166.24ZM158.529 172.77H161.759V158.48H158.529V172.77ZM186.259 166.24C186.259 166.88 186.269 167.79 186.329 168.63C186.009 168.04 185.619 167.39 185.289 166.85L180.019 158.51L179.999 158.47H176.319V172.76H179.289V164.71C179.289 163.95 179.249 163.16 179.219 162.45C179.559 163.07 179.949 163.72 180.319 164.33L185.529 172.71L185.549 172.75H189.249V158.46H186.259V166.24ZM212.439 165.08V170.54C211.899 170.57 211.139 170.59 210.329 170.59C207.069 170.59 206.429 169.13 206.429 166.62V164.62C206.429 161.3 207.929 160.67 210.709 160.67C211.829 160.67 214.399 160.79 215.409 160.86L215.499 160.87V158.69L215.439 158.67C214.939 158.54 212.569 158.19 210.179 158.19C207.189 158.19 203.219 158.86 203.219 164.62V166.62C203.219 171.02 205.409 173.07 210.109 173.07C212.509 173.07 214.589 172.79 215.449 172.63L215.519 172.62V165.08H212.439Z" fill="url(#paint0_linear_109_2347)"/>
    <path d="M213.41 147.69C210.88 147.69 209.25 145.97 209.25 143.29C209.25 140.61 210.88 138.88 213.41 138.88C215.93 138.88 217.56 140.6 217.56 143.29C217.56 145.97 215.93 147.69 213.41 147.69ZM213.41 139.86C211.46 139.86 210.29 141.16 210.29 143.29C210.29 145.45 211.46 146.73 213.41 146.73C215.35 146.73 216.52 145.45 216.52 143.29C216.52 141.15 215.35 139.86 213.41 139.86ZM214.34 145.53L213.24 143.84H212.75V145.53H211.68V140.82C212.36 140.77 212.56 140.77 213.1 140.77C214.32 140.79 215.23 141.01 215.23 142.31C215.23 143.01 214.89 143.45 214.33 143.64L215.58 145.53H214.34ZM212.88 141.64H212.76V143.03C213.7 143.03 214.16 143 214.16 142.31C214.16 141.65 213.73 141.64 212.88 141.64Z" fill="white"/>
    </g>
    <defs>
    <linearGradient id="paint0_linear_109_2347" x1="123.568" y1="173.074" x2="123.568" y2="158.198" gradientUnits="userSpaceOnUse">
    <stop stop-color="#929A9F"/>
    <stop offset="1" stop-color="#BBC1C5"/>
    </linearGradient>
    <clipPath id="clip0_109_2347">
    <rect width="251.26" height="207.47" fill="white"/>
    </clipPath>
    </defs>
    </svg>
    